<?xml version="1.0" encoding="utf-8"?>
<svg version="1.1" id="Laag_1" xmlns="http://www.w3.org/2000/svg" xmlns:xlink="http://www.w3.org/1999/xlink" x="0px" y="0px"
	 viewBox="0 0 75 43" style="enable-background:new 0 0 75 43;" xml:space="preserve">
    <style type="text/css">
        .st0{fill:#DF0067;}
        .st1{fill:#133370;}
    </style>
<g>
	<g>
		<g>
			<g>
				<g>
					<g>
                        <g>
                            <g>
                                <rect x="41.5" y="25" class="st0" width="7.1" height="17.9" />
                                <rect x="41.5" y="0.5" class="st0" width="7.1" height="17.5" />
                                <polygon class="st0" points="67.2,0.5 67.2,18 52.1,18 49.1,24.9 67.2,24.9 67.2,42.8 74.3,42.8 74.3,0.5 								" />
                            </g>
                            <path class="st1" d="M13.8,42.8c-6.4,0-11.6-5.2-11.6-11.7l0,0V12.2c0-6.4,5.2-11.7,11.6-11.7l0,0H35v7.3H13.8
								c-2.4,0-4.4,2-4.4,4.4l0,0v18.9c0,2.4,2,4.4,4.4,4.4l0,0H35v7.3H13.8L13.8,42.8z" />
                        </g>
					</g>
				</g>
				<polygon class="st1" points="14.1,18 14.1,24.9 30.4,24.9 33.5,18 				"/>
			</g>
		</g>
	</g>
</g>
</svg>
