<?xml version="1.0" encoding="utf-8"?>
<!-- Generator: Adobe Illustrator 23.0.6, SVG Export Plug-In . SVG Version: 6.00 Build 0)  -->
<svg version="1.1"
	 id="svg2" xmlns:cc="http://creativecommons.org/ns#" xmlns:dc="http://purl.org/dc/elements/1.1/" xmlns:rdf="http://www.w3.org/1999/02/22-rdf-syntax-ns#" xmlns:svg="http://www.w3.org/2000/svg"
	 xmlns="http://www.w3.org/2000/svg" xmlns:xlink="http://www.w3.org/1999/xlink" x="0px" y="0px" viewBox="0 0 666.7 666.7"
	 style="enable-background:new 0 0 666.7 666.7;" xml:space="preserve">
<style type="text/css">
	.st0{fill:#314199;}
	.st1{fill:#F8EC26;}
</style>
<g id="g10" transform="matrix(1.3333333,0,0,-1.3333333,-5.2083332e-4,666.66665)">
	<g id="g12" transform="scale(0.1)">
		<g>
			<path id="path14_1_" class="st0" d="M4500,0H500C223.9,0,0,223.9,0,500v4000c0,276.1,223.9,500,500,500h4000
				c276.1,0,500-223.9,500-500V500C5000,223.9,4776.2,0,4500,0"/>
			<g>
				<polygon class="st1" points="2498.2,1077.5 2563.9,882.8 2764.3,883.1 2622.1,775.4 2661.2,566.4 2498.2,685 2334.6,569.6 
					2374.2,775.4 2233.5,883.7 2433.7,883.7 				"/>
				<polygon class="st1" points="2498.2,4459.3 2563.9,4264.6 2764.3,4264.8 2622.1,4157.2 2661.2,3948.2 2498.2,4066.8 
					2334.6,3951.4 2374.2,4157.2 2233.5,4265.5 2433.7,4265.5 				"/>
				<polygon class="st1" points="3312.7,4241.8 3378.5,4047.1 3578.9,4047.3 3436.7,3939.7 3475.7,3730.7 3312.7,3849.3 
					3149.2,3733.9 3188.8,3939.7 3048.1,4048 3248.2,4048 				"/>
				<polygon class="st1" points="1644.3,4241.8 1710.1,4047.1 1910.4,4047.3 1768.2,3939.7 1807.3,3730.7 1644.3,3849.3 
					1480.8,3733.9 1520.4,3939.7 1379.7,4048 1579.8,4048 				"/>
				<polygon class="st1" points="3312.7,1306 3378.5,1111.3 3578.9,1111.5 3436.7,1003.8 3475.7,794.9 3312.7,913.4 3149.2,798.1 
					3188.8,1003.8 3048.1,1112.2 3248.2,1112.2 				"/>
				<polygon class="st1" points="1644.3,1306 1710.1,1111.3 1910.4,1111.5 1768.2,1003.8 1807.3,794.9 1644.3,913.4 1480.8,798.1 
					1520.4,1003.8 1379.7,1112.2 1579.8,1112.2 				"/>
				<polygon class="st1" points="1020.4,3603.6 1086.2,3408.9 1286.5,3409.1 1144.4,3301.5 1183.4,3092.5 1020.4,3211.1 
					856.9,3095.7 896.5,3301.5 755.8,3409.8 955.9,3409.8 				"/>
				<polygon class="st1" points="3957,3603.6 4022.8,3408.9 4223.2,3409.1 4081,3301.5 4120,3092.5 3957,3211.1 3793.5,3095.7 
					3833.1,3301.5 3692.4,3409.8 3892.5,3409.8 				"/>
				<polygon class="st1" points="1020.4,1915.7 1086.2,1721 1286.5,1721.2 1144.4,1613.6 1183.4,1404.6 1020.4,1523.2 856.9,1407.8 
					896.5,1613.6 755.8,1721.9 955.9,1721.9 				"/>
				<polygon class="st1" points="3957,1915.7 4022.8,1721 4223.2,1721.2 4081,1613.6 4120,1404.6 3957,1523.2 3793.5,1407.8 
					3833.1,1613.6 3692.4,1721.9 3892.5,1721.9 				"/>
				<polygon class="st1" points="826.6,2766 892.4,2571.3 1092.7,2571.5 950.5,2463.9 989.6,2254.9 826.6,2373.5 663.1,2258.1 
					702.7,2463.9 562,2572.2 762.1,2572.2 				"/>
				<polygon class="st1" points="4171.9,2766 4237.7,2571.3 4438,2571.5 4295.9,2463.9 4334.9,2254.9 4171.9,2373.5 4008.4,2258.1 
					4048,2463.9 3907.3,2572.2 4107.4,2572.2 				"/>
			</g>
		</g>
	</g>
</g>
</svg>
